<!--?xml version="1.0" encoding="utf-8"?-->
<svg version="1.0" width="1855.000000pt" height="1855.000000pt" preserveAspectRatio="xMidYMid meet" viewBox="-28.184 -27.557 1911.994 1913.872" xmlns="http://www.w3.org/2000/svg" style="">
  <path style="fill: none;" d="M27.266000000000076,925.342A898.742,907.433 0,1,1 1824.75,925.342A898.742,907.433 0,1,1 27.266000000000076,925.342" class="wAPqGwjz_0"></path>
  <path style="fill: none; stroke-width: 110px; stroke: rgb(255, 255, 255);" d="M45.420999999999935,927.294A881.653,884.297 0,1,1 1808.7269999999999,927.294A881.653,884.297 0,1,1 45.420999999999935,927.294" class="wAPqGwjz_1"></path>
  <path style="fill: none; stroke-linecap: square; stroke-width: 70px; stroke: rgb(255, 255, 255);" transform="matrix(-1, 0, 0, -1, 1564.940063, 1699.575989)" d="M348.986,589.949L572.971,367.365L881.184,670.567L667.784,882.061L695.357,909.637L909.184,697.295L1193.392,983.928L816.61,1360.407L844.637,1387.531L1243.3,983.595L573.755,312.949L321.64,562.781Z" class="wAPqGwjz_2"></path>
  <path style="fill: none; stroke-linecap: square; stroke-width: 70px; stroke: rgb(255, 255, 255);" d="M643.994,741.023L867.979,518.44L1176.192,821.641L961.435,1032.231L987.653,1059.355L1204.192,848.369L1488.399,1135.002L1111.618,1511.481L1140.097,1538.605L1538.307,1134.669L868.762,464.024L616.648,713.855Z" class="wAPqGwjz_3"></path>
<style data-made-with="vivus-instant">.wAPqGwjz_0{stroke-dasharray:5677 5679;stroke-dashoffset:5678;animation:wAPqGwjz_draw_0 3500ms ease-in-out 0ms infinite,wAPqGwjz_fade 3500ms linear 0ms infinite;}.wAPqGwjz_1{stroke-dasharray:5549 5551;stroke-dashoffset:5550;animation:wAPqGwjz_draw_1 3500ms ease-in-out 0ms infinite,wAPqGwjz_fade 3500ms linear 0ms infinite;}.wAPqGwjz_2{stroke-dasharray:4273 4275;stroke-dashoffset:4274;animation:wAPqGwjz_draw_2 3500ms ease-in-out 0ms infinite,wAPqGwjz_fade 3500ms linear 0ms infinite;}.wAPqGwjz_3{stroke-dasharray:4273 4275;stroke-dashoffset:4274;animation:wAPqGwjz_draw_3 3500ms ease-in-out 0ms infinite,wAPqGwjz_fade 3500ms linear 0ms infinite;}@keyframes wAPqGwjz_draw{100%{stroke-dashoffset:0;}}@keyframes wAPqGwjz_fade{0%{stroke-opacity:1;}88.57142857142857%{stroke-opacity:1;}100%{stroke-opacity:0;}}@keyframes wAPqGwjz_draw_0{22.857142857142858%{stroke-dashoffset: 5678}42.857142857142854%{ stroke-dashoffset: 0;}100%{ stroke-dashoffset: 0;}}@keyframes wAPqGwjz_draw_1{27.619047619047617%{stroke-dashoffset: 5550}47.61904761904761%{ stroke-dashoffset: 0;}100%{ stroke-dashoffset: 0;}}@keyframes wAPqGwjz_draw_2{32.38095238095238%{stroke-dashoffset: 4274}52.38095238095239%{ stroke-dashoffset: 0;}100%{ stroke-dashoffset: 0;}}@keyframes wAPqGwjz_draw_3{37.142857142857146%{stroke-dashoffset: 4274}57.14285714285714%{ stroke-dashoffset: 0;}100%{ stroke-dashoffset: 0;}}</style></svg>